<mxfile host="app.diagrams.net" modified="2022-09-29T09:24:24.288Z" agent="5.0 (Windows NT 10.0; Win64; x64) AppleWebKit/537.36 (KHTML, like Gecko) Chrome/105.0.0.0 Safari/537.36" etag="ajGDVJC-5WKr7pW9ukXG" version="20.3.6" type="github">
  <diagram id="GH4xKBczdiFa3t3dcTzS" name="第 1 页">
    <mxGraphModel dx="1038" dy="538" grid="1" gridSize="10" guides="1" tooltips="1" connect="1" arrows="1" fold="1" page="1" pageScale="1" pageWidth="2000" pageHeight="1169" math="0" shadow="0">
      <root>
        <mxCell id="0" />
        <mxCell id="1" parent="0" />
        <mxCell id="XwOoy_bkTjQHDjhsfqGR-29" value="" style="rounded=0;whiteSpace=wrap;html=1;labelBorderColor=none;labelBackgroundColor=none;fillStyle=auto;fillColor=none;dashed=1;" vertex="1" parent="1">
          <mxGeometry x="310" y="110" width="100" height="210" as="geometry" />
        </mxCell>
        <mxCell id="XwOoy_bkTjQHDjhsfqGR-30" value="" style="rounded=0;whiteSpace=wrap;html=1;labelBorderColor=none;labelBackgroundColor=none;fillStyle=auto;fillColor=none;dashed=1;" vertex="1" parent="1">
          <mxGeometry x="430" y="110" width="100" height="210" as="geometry" />
        </mxCell>
        <mxCell id="XwOoy_bkTjQHDjhsfqGR-31" value="" style="rounded=0;whiteSpace=wrap;html=1;labelBorderColor=none;labelBackgroundColor=none;fillStyle=auto;fillColor=none;dashed=1;" vertex="1" parent="1">
          <mxGeometry x="550" y="110" width="100" height="210" as="geometry" />
        </mxCell>
        <mxCell id="XwOoy_bkTjQHDjhsfqGR-32" value="" style="rounded=0;whiteSpace=wrap;html=1;labelBorderColor=none;labelBackgroundColor=none;fillStyle=auto;fillColor=none;dashed=1;" vertex="1" parent="1">
          <mxGeometry x="430" y="110" width="100" height="210" as="geometry" />
        </mxCell>
        <mxCell id="XwOoy_bkTjQHDjhsfqGR-33" value="" style="rounded=0;whiteSpace=wrap;html=1;labelBorderColor=none;labelBackgroundColor=none;fillStyle=auto;fillColor=none;dashed=1;" vertex="1" parent="1">
          <mxGeometry x="310" y="110" width="100" height="210" as="geometry" />
        </mxCell>
        <mxCell id="XwOoy_bkTjQHDjhsfqGR-48" style="edgeStyle=orthogonalEdgeStyle;curved=1;rounded=0;orthogonalLoop=1;jettySize=auto;html=1;exitX=0.5;exitY=1;exitDx=0;exitDy=0;entryX=0.5;entryY=0;entryDx=0;entryDy=0;startArrow=classic;startFill=1;" edge="1" parent="1" source="XwOoy_bkTjQHDjhsfqGR-2" target="XwOoy_bkTjQHDjhsfqGR-18">
          <mxGeometry relative="1" as="geometry" />
        </mxCell>
        <mxCell id="XwOoy_bkTjQHDjhsfqGR-2" value="F2" style="rounded=1;whiteSpace=wrap;html=1;shadow=0;sketch=0;glass=0;fillColor=#fff2cc;strokeColor=#d6b656;gradientColor=none;gradientDirection=east;fontFamily=Verdana;" vertex="1" parent="1">
          <mxGeometry x="320" y="120" width="40" height="30" as="geometry" />
        </mxCell>
        <mxCell id="XwOoy_bkTjQHDjhsfqGR-40" style="edgeStyle=orthogonalEdgeStyle;curved=1;rounded=0;orthogonalLoop=1;jettySize=auto;html=1;exitX=0.25;exitY=0;exitDx=0;exitDy=0;entryX=0.5;entryY=1;entryDx=0;entryDy=0;startArrow=classic;startFill=1;" edge="1" parent="1" source="XwOoy_bkTjQHDjhsfqGR-4" target="XwOoy_bkTjQHDjhsfqGR-7">
          <mxGeometry relative="1" as="geometry" />
        </mxCell>
        <mxCell id="XwOoy_bkTjQHDjhsfqGR-47" style="edgeStyle=orthogonalEdgeStyle;curved=1;rounded=0;orthogonalLoop=1;jettySize=auto;html=1;exitX=0.75;exitY=0;exitDx=0;exitDy=0;entryX=0.5;entryY=1;entryDx=0;entryDy=0;startArrow=classic;startFill=1;" edge="1" parent="1" source="XwOoy_bkTjQHDjhsfqGR-4" target="XwOoy_bkTjQHDjhsfqGR-15">
          <mxGeometry relative="1" as="geometry" />
        </mxCell>
        <mxCell id="XwOoy_bkTjQHDjhsfqGR-4" value="F3" style="rounded=1;whiteSpace=wrap;html=1;shadow=0;sketch=0;glass=0;fillColor=#f8cecc;strokeColor=#b85450;fontFamily=Verdana;" vertex="1" parent="1">
          <mxGeometry x="440" y="200" width="80" height="30" as="geometry" />
        </mxCell>
        <mxCell id="XwOoy_bkTjQHDjhsfqGR-51" style="edgeStyle=orthogonalEdgeStyle;curved=1;rounded=0;orthogonalLoop=1;jettySize=auto;html=1;exitX=0.5;exitY=1;exitDx=0;exitDy=0;entryX=0.5;entryY=0;entryDx=0;entryDy=0;startArrow=classic;startFill=1;" edge="1" parent="1" source="XwOoy_bkTjQHDjhsfqGR-5" target="XwOoy_bkTjQHDjhsfqGR-20">
          <mxGeometry relative="1" as="geometry" />
        </mxCell>
        <mxCell id="XwOoy_bkTjQHDjhsfqGR-5" value="F4" style="rounded=1;whiteSpace=wrap;html=1;shadow=0;sketch=0;glass=0;fillColor=#fff2cc;strokeColor=#d6b656;fontFamily=Verdana;" vertex="1" parent="1">
          <mxGeometry x="600" y="120" width="40" height="30" as="geometry" />
        </mxCell>
        <mxCell id="XwOoy_bkTjQHDjhsfqGR-7" value="FR2" style="rounded=1;whiteSpace=wrap;html=1;shadow=0;sketch=0;glass=0;fillColor=#f5f5f5;strokeColor=#666666;gradientDirection=east;fontColor=#333333;fontFamily=Verdana;" vertex="1" parent="1">
          <mxGeometry x="360" y="120" width="40" height="30" as="geometry" />
        </mxCell>
        <mxCell id="XwOoy_bkTjQHDjhsfqGR-8" style="edgeStyle=orthogonalEdgeStyle;curved=1;rounded=0;orthogonalLoop=1;jettySize=auto;html=1;exitX=0.25;exitY=1;exitDx=0;exitDy=0;entryX=0.75;entryY=1;entryDx=0;entryDy=0;dashed=1;fontFamily=Verdana;" edge="1" parent="1" target="XwOoy_bkTjQHDjhsfqGR-10">
          <mxGeometry relative="1" as="geometry">
            <Array as="points">
              <mxPoint x="610" y="290" />
              <mxPoint x="590" y="290" />
            </Array>
            <mxPoint x="610" y="270" as="sourcePoint" />
          </mxGeometry>
        </mxCell>
        <mxCell id="XwOoy_bkTjQHDjhsfqGR-12" style="edgeStyle=orthogonalEdgeStyle;curved=1;rounded=0;orthogonalLoop=1;jettySize=auto;html=1;exitX=0.25;exitY=1;exitDx=0;exitDy=0;entryX=0.75;entryY=1;entryDx=0;entryDy=0;dashed=1;fontFamily=Verdana;" edge="1" parent="1" source="XwOoy_bkTjQHDjhsfqGR-13">
          <mxGeometry relative="1" as="geometry">
            <Array as="points">
              <mxPoint x="370" y="290" />
              <mxPoint x="350" y="290" />
            </Array>
            <mxPoint x="350" y="270" as="targetPoint" />
          </mxGeometry>
        </mxCell>
        <mxCell id="XwOoy_bkTjQHDjhsfqGR-15" value="FR4" style="rounded=1;whiteSpace=wrap;html=1;shadow=0;sketch=0;glass=0;fillColor=#f5f5f5;strokeColor=#666666;gradientDirection=east;fontColor=#333333;fontFamily=Verdana;" vertex="1" parent="1">
          <mxGeometry x="560" y="120" width="40" height="30" as="geometry" />
        </mxCell>
        <mxCell id="XwOoy_bkTjQHDjhsfqGR-49" style="edgeStyle=orthogonalEdgeStyle;curved=1;rounded=0;orthogonalLoop=1;jettySize=auto;html=1;exitX=0.5;exitY=1;exitDx=0;exitDy=0;startArrow=classic;startFill=1;" edge="1" parent="1" source="XwOoy_bkTjQHDjhsfqGR-18" target="XwOoy_bkTjQHDjhsfqGR-23">
          <mxGeometry relative="1" as="geometry" />
        </mxCell>
        <mxCell id="XwOoy_bkTjQHDjhsfqGR-18" value="F2" style="rounded=1;whiteSpace=wrap;html=1;shadow=0;sketch=0;glass=0;fillColor=#fff2cc;strokeColor=#d6b656;gradientColor=none;gradientDirection=east;fontFamily=Verdana;" vertex="1" parent="1">
          <mxGeometry x="320" y="200" width="40" height="30" as="geometry" />
        </mxCell>
        <mxCell id="XwOoy_bkTjQHDjhsfqGR-53" style="edgeStyle=orthogonalEdgeStyle;curved=1;rounded=0;orthogonalLoop=1;jettySize=auto;html=1;exitX=0.5;exitY=1;exitDx=0;exitDy=0;entryX=0.5;entryY=0;entryDx=0;entryDy=0;startArrow=classic;startFill=1;" edge="1" parent="1" source="XwOoy_bkTjQHDjhsfqGR-20" target="XwOoy_bkTjQHDjhsfqGR-25">
          <mxGeometry relative="1" as="geometry" />
        </mxCell>
        <mxCell id="XwOoy_bkTjQHDjhsfqGR-20" value="F4" style="rounded=1;whiteSpace=wrap;html=1;shadow=0;sketch=0;glass=0;fillColor=#fff2cc;strokeColor=#d6b656;fontFamily=Verdana;" vertex="1" parent="1">
          <mxGeometry x="600" y="200" width="40" height="30" as="geometry" />
        </mxCell>
        <mxCell id="XwOoy_bkTjQHDjhsfqGR-21" value="FR2" style="rounded=1;whiteSpace=wrap;html=1;shadow=0;sketch=0;glass=0;fillColor=#f5f5f5;strokeColor=#666666;gradientDirection=east;fontColor=#333333;fontFamily=Verdana;" vertex="1" parent="1">
          <mxGeometry x="360" y="200" width="40" height="30" as="geometry" />
        </mxCell>
        <mxCell id="XwOoy_bkTjQHDjhsfqGR-22" value="FR4" style="rounded=1;whiteSpace=wrap;html=1;shadow=0;sketch=0;glass=0;fillColor=#f5f5f5;strokeColor=#666666;gradientDirection=east;fontColor=#333333;fontFamily=Verdana;" vertex="1" parent="1">
          <mxGeometry x="560" y="200" width="40" height="30" as="geometry" />
        </mxCell>
        <mxCell id="XwOoy_bkTjQHDjhsfqGR-23" value="F2" style="rounded=1;whiteSpace=wrap;html=1;shadow=0;sketch=0;glass=0;fillColor=#fff2cc;strokeColor=#d6b656;gradientColor=none;gradientDirection=east;fontFamily=Verdana;" vertex="1" parent="1">
          <mxGeometry x="320" y="280" width="40" height="30" as="geometry" />
        </mxCell>
        <mxCell id="XwOoy_bkTjQHDjhsfqGR-39" style="edgeStyle=orthogonalEdgeStyle;curved=1;rounded=0;orthogonalLoop=1;jettySize=auto;html=1;exitX=0.5;exitY=0;exitDx=0;exitDy=0;entryX=0.5;entryY=1;entryDx=0;entryDy=0;startArrow=classic;startFill=1;" edge="1" parent="1" source="XwOoy_bkTjQHDjhsfqGR-24" target="XwOoy_bkTjQHDjhsfqGR-4">
          <mxGeometry relative="1" as="geometry" />
        </mxCell>
        <mxCell id="XwOoy_bkTjQHDjhsfqGR-24" value="F3" style="rounded=1;whiteSpace=wrap;html=1;shadow=0;sketch=0;glass=0;fillColor=#f8cecc;strokeColor=#b85450;fontFamily=Verdana;" vertex="1" parent="1">
          <mxGeometry x="440" y="280" width="80" height="30" as="geometry" />
        </mxCell>
        <mxCell id="XwOoy_bkTjQHDjhsfqGR-25" value="F4" style="rounded=1;whiteSpace=wrap;html=1;shadow=0;sketch=0;glass=0;fillColor=#fff2cc;strokeColor=#d6b656;fontFamily=Verdana;" vertex="1" parent="1">
          <mxGeometry x="600" y="280" width="40" height="30" as="geometry" />
        </mxCell>
        <mxCell id="XwOoy_bkTjQHDjhsfqGR-26" value="FR2" style="rounded=1;whiteSpace=wrap;html=1;shadow=0;sketch=0;glass=0;fillColor=#f5f5f5;strokeColor=#666666;gradientDirection=east;fontColor=#333333;fontFamily=Verdana;" vertex="1" parent="1">
          <mxGeometry x="360" y="280" width="40" height="30" as="geometry" />
        </mxCell>
        <mxCell id="XwOoy_bkTjQHDjhsfqGR-27" value="FR4" style="rounded=1;whiteSpace=wrap;html=1;shadow=0;sketch=0;glass=0;fillColor=#f5f5f5;strokeColor=#666666;gradientDirection=east;fontColor=#333333;fontFamily=Verdana;" vertex="1" parent="1">
          <mxGeometry x="560" y="280" width="40" height="30" as="geometry" />
        </mxCell>
      </root>
    </mxGraphModel>
  </diagram>
</mxfile>
